<?xml version="1.0" encoding="UTF-8"?>
<svg width="256" height="256" viewBox="0 0 256 256" xmlns="http://www.w3.org/2000/svg" role="img" aria-label="RW PDF Logo">
  <defs>
    <linearGradient id="rwGradient" x1="0%" y1="0%" x2="100%" y2="100%">
      <stop offset="0%" stop-color="#48BB78"/>
      <stop offset="50%" stop-color="#B794F6"/>
      <stop offset="100%" stop-color="#805AD5"/>
    </linearGradient>
    <filter id="shadow" x="-20%" y="-20%" width="140%" height="140%">
      <feDropShadow dx="0" dy="2" stdDeviation="3" flood-color="#2D3748" flood-opacity="0.4"/>
    </filter>
  </defs>
  <!-- Tech hex frame -->
  <polygon points="128,20 214,64 214,160 128,204 42,160 42,64" fill="#2D3748" fill-opacity="0.15" stroke="url(#rwGradient)" stroke-width="12" filter="url(#shadow)"/>
  <!-- Stylized R -->
  <path d="M60 82 H120 C142 82 158 98 158 120 C158 142 142 158 120 158 H60 V82 Z" fill="none" stroke="url(#rwGradient)" stroke-width="12" stroke-linecap="round" stroke-linejoin="round"/>
  <path d="M120 120 L158 158" fill="none" stroke="url(#rwGradient)" stroke-width="12" stroke-linecap="round"/>
  <!-- Stylized W -->
  <path d="M170 82 L182 140 L194 110 L206 140 L218 82" fill="none" stroke="url(#rwGradient)" stroke-width="12" stroke-linecap="round" stroke-linejoin="round"/>
  <!-- Center tech node -->
  <circle cx="128" cy="128" r="6" fill="#48BB78"/>
  <!-- Circuit dots -->
  <circle cx="96" cy="60" r="4" fill="#805AD5"/>
  <circle cx="196" cy="120" r="4" fill="#B794F6"/>
  <circle cx="60" cy="140" r="4" fill="#48BB78"/>
</svg>
